<?xml version="1.0" standalone="no"?>
<!DOCTYPE svg PUBLIC "-//W3C//DTD SVG 20010904//EN"
 "http://www.w3.org/TR/2001/REC-SVG-20010904/DTD/svg10.dtd">
<svg version="1.0" xmlns="http://www.w3.org/2000/svg"
 width="180.000000pt" height="180.000000pt" viewBox="0 0 180.000000 180.000000"
 preserveAspectRatio="xMidYMid meet">
<metadata>
Created by potrace 1.14, written by Peter Selinger 2001-2017
</metadata>
<g transform="translate(0.000000,180.000000) scale(0.100000,-0.100000)"
fill="#000000" stroke="none">
<path d="M329 1795 c-3 -2 -20 -7 -39 -10 -81 -14 -185 -93 -234 -177 -55 -94
-56 -106 -55 -708 0 -326 4 -573 9 -598 27 -116 106 -212 217 -265 l68 -32
610 0 610 0 60 29 c107 53 188 154 215 268 6 27 9 265 7 623 l-2 580 -33 69
c-52 110 -148 189 -264 216 -41 9 -1160 15 -1169 5z m266 -249 c11 -17 13
-140 13 -644 0 -591 -1 -623 -19 -646 -27 -34 -65 -39 -84 -10 -13 20 -15 106
-15 654 l0 631 24 24 c28 28 60 24 81 -9z m655 -241 c7 -9 14 -27 16 -40 3
-29 0 -31 -281 -257 -193 -155 -214 -174 -215 -195 0 -6 42 -47 93 -89 50 -43
112 -97 137 -120 25 -23 55 -51 68 -62 44 -39 165 -148 204 -184 44 -42 46
-70 8 -108 -18 -18 -24 -19 -50 -8 -16 7 -66 47 -111 88 -45 41 -90 82 -99 90
-27 23 -237 218 -309 286 -61 58 -64 63 -65 108 -1 45 2 50 55 99 31 29 140
122 244 207 103 85 199 165 214 177 30 26 73 30 91 8z"/>
</g>
</svg>
